# xmcd
#
# Track frame offsets:
#	150
#	15684
#	29915
#	40101
#	55060
#	72810
#	84810
#	99178
#	112430
#	125909
#	142163
#	159088
#
# Disc length: 2258 seconds
#
# Revision: 0
# Processed by: cddbd v1.5.2PL0 Copyright (c) Steve Scherf et al.
# Submitted via: EasyCDDAExtractor 11.1.0.1
#
DISCID=a208d00c
DTITLE=Mick Hucknall - Tribute To Bobby
DYEAR=2008
DGENRE=Soul Blues
TTITLE0=Farther Up The Road
TTITLE1=Ain't That Lovin' You
TTITLE2=I'm Too Far Gone ( To Turn Around)
TTITLE3=Poverty
TTITLE4=Yolanda
TTITLE5=Stormy Monday Blues
TTITLE6=I Wouldn't Treat a Dog (The Way You Treated Me)
TTITLE7=I'll Take Care Of You
TTITLE8=Chains Of Love
TTITLE9=I Pity The Fool
TTITLE10=Cry Cry Cry
TTITLE11=Lead Me On
EXTD=
EXTT0=
EXTT1=
EXTT2=
EXTT3=
EXTT4=
EXTT5=
EXTT6=
EXTT7=
EXTT8=
EXTT9=
EXTT10=
EXTT11=
PLAYORDER=
